# xmcd
#
# Track frame offsets:
#	150
#	11740
#	22594
#	39745
#	72281
#	88693
#	108911
#	121593
#	132871
#	144910
#	158485
#	177002
#
# Disc length: 2439 seconds
#
# Revision: 0
# Processed by: cddbd v1.5.1PL0 Copyright (c) Steve Scherf et al.
# Submitted via: audiograbber 1.83.01
#
DISCID=8709850c
DTITLE=Ron Thompson and the Resistors - Still Resisting
DYEAR=2004
DGENRE=Blues
TTITLE0=13 Women
TTITLE1=Swing Down Chariot
TTITLE2=Way Too Early
TTITLE3=Looking For Trouble
TTITLE4=Honest I Do
TTITLE5=Hip Shake
TTITLE6=Nervous Breakdown
TTITLE7=The Gamble
TTITLE8=Monkey Fiddle
TTITLE9=I'm Shaking
TTITLE10=Freight Train Let Me Ride
TTITLE11=Resistor Twister
EXTD=
EXTT0=
EXTT1=
EXTT2=
EXTT3=
EXTT4=
EXTT5=
EXTT6=
EXTT7=
EXTT8=
EXTT9=
EXTT10=
EXTT11=
PLAYORDER=
